<svg xmlns="http://www.w3.org/2000/svg" viewBox="0 0 64 64"><title>38_Augmentation</title><g id="_38_Augmentation" data-name="38_Augmentation"><path d="M32,20.6667A11.3334,11.3334,0,1,0,43.3333,32,11.3459,11.3459,0,0,0,32,20.6667ZM32,42A10,10,0,1,1,42,32,10.0118,10.0118,0,0,1,32,42Z"/><path d="M34.6667,26A3.3334,3.3334,0,1,0,38,29.3334,3.3365,3.3365,0,0,0,34.6667,26Zm0,5.3334a2,2,0,1,1,2-2A2.003,2.003,0,0,1,34.6667,31.3334Z"/><path d="M56,47.3334a3.3364,3.3364,0,0,0-3.3333,3.3333,3.2606,3.2606,0,0,0,.737,2H38.4375a2.0144,2.0144,0,0,1-1.4141-.586l-3.483-3.483C43.9067,47.9,59.3333,40.451,59.3333,32S43.9067,16.1,33.54,15.4023l3.483-3.483a2.0143,2.0143,0,0,1,1.4141-.5859h6.9662a3.26,3.26,0,0,0-.737,2A3.3333,3.3333,0,1,0,48,10H38.4375a3.3521,3.3521,0,0,0-2.3568.9766l-4.37,4.37a35.2444,35.2444,0,0,0-10.6688,2.0854l-3.79-3.7884a3.3524,3.3524,0,0,0-2.3568-.9765H11.1986A3.29,3.29,0,0,0,8,10a3.3334,3.3334,0,0,0,0,6.6667A3.29,3.29,0,0,0,11.1986,14h3.6972a2.0147,2.0147,0,0,1,1.4141.5859l3.3626,3.3615C11.8305,20.9621,4.6667,26.2448,4.6667,32c0,5.7577,7.1669,11.0373,15.01,14.048L16.31,49.4141A2.0143,2.0143,0,0,1,14.8958,50H5.3333a.6667.6667,0,0,0,0,1.3334h9.5625a3.3521,3.3521,0,0,0,2.3568-.9766l3.7967-3.7956a35.3485,35.3485,0,0,0,10.6618,2.0926l4.37,4.37A3.3521,3.3521,0,0,0,38.4375,54H56a3.3333,3.3333,0,1,0,0-6.6666Zm-8-36a2,2,0,1,1-2,2A2.003,2.003,0,0,1,48,11.3334Zm-40,4a2,2,0,1,1,2-2A2.003,2.003,0,0,1,8,15.3334ZM58,32c0,3.9807-4.4247,8.1022-10.173,11.0728a19.2369,19.2369,0,0,0,0-22.1454C53.5753,23.8979,58,28.0194,58,32ZM6,32c0-3.9806,4.4247-8.1022,10.173-11.0728a19.2365,19.2365,0,0,0,0,22.1456C10.4247,40.1022,6,35.9807,6,32ZM18.9679,44.395a17.9468,17.9468,0,0,1,0-24.79A35.0231,35.0231,0,0,1,32,16.6667,35.0235,35.0235,0,0,1,45.0321,19.605a17.9468,17.9468,0,0,1,0,24.79A35.0218,35.0218,0,0,1,32,47.3334,35.0213,35.0213,0,0,1,18.9679,44.395ZM56,52.6667a2,2,0,1,1,2-2A2.003,2.003,0,0,1,56,52.6667Z"/></g></svg>