<svg xmlns="http://www.w3.org/2000/svg" viewBox="0 0 48 48"><defs><style>.cls-1{fill:#201602;}</style></defs><title>Asset 50ldpi</title><g id="Layer_2" data-name="Layer 2"><g id="layer_1-2" data-name="layer 1"><path class="cls-1" d="M2,11H0V1A1,1,0,0,1,1,0H11V2H2Z"/><path class="cls-1" d="M48,11H46V2H37V0H47a1,1,0,0,1,1,1Z"/><path class="cls-1" d="M47,48H37V46h9V37h2V47A1,1,0,0,1,47,48Z"/><path class="cls-1" d="M11,48H1a1,1,0,0,1-1-1V37H2v9h9Z"/><rect class="cls-1" x="17" y="6" width="2" height="36"/><rect class="cls-1" x="11" y="14" width="2" height="20"/><rect class="cls-1" x="29" y="11" width="2" height="26"/><rect class="cls-1" x="35" y="17" width="2" height="14"/><rect class="cls-1" x="41" y="21" width="2" height="6"/><rect class="cls-1" x="23" y="15" width="2" height="18"/><rect class="cls-1" x="5" y="19" width="2" height="10"/></g></g></svg>